<svg xmlns="http://www.w3.org/2000/svg" width="960" height="640" viewBox="0 0 960 640" role="img" aria-label="Сгибание рук со штангой: техника выполнения">
  <rect width="960" height="640" rx="48" fill="#fff7ec"/>
  <rect x="42" y="42" width="876" height="556" rx="38" fill="#fffaf2" stroke="#eadfce" stroke-width="4"/>
  <text x="72" y="96" font-family="Inter, Arial, sans-serif" font-size="38" font-weight="800" fill="#211b16">Сгибание рук со штангой</text>
  <text x="72" y="132" font-family="Inter, Arial, sans-serif" font-size="22" font-weight="700" fill="#8a7b6b">Бицепс</text>
  
  <circle cx="455" cy="185" r="28" fill="#f0a67d" stroke="#211b16" stroke-width="4"/>
  <path d="M455 217 L455 313" stroke="#211b16" stroke-width="16" stroke-linecap="round"/>
  <path d="M409 257 L501 257" stroke="#211b16" stroke-width="14" stroke-linecap="round"/>
  <path d="M447 313 L403 405" stroke="#211b16" stroke-width="15" stroke-linecap="round"/>
  <path d="M463 313 L507 405" stroke="#211b16" stroke-width="15" stroke-linecap="round"/>
  <line x1="330" y1="350" x2="580" y2="350" stroke="#2b2621" stroke-width="12" stroke-linecap="round"/>
  <circle cx="310" cy="350" r="22" fill="#2b2621"/><circle cx="600" cy="350" r="22" fill="#2b2621"/>
  <defs><marker id="arrow" markerWidth="10" markerHeight="10" refX="8" refY="3" orient="auto" markerUnits="strokeWidth"><path d="M0,0 L0,6 L9,3 z" fill="#ff7a3d"/></marker></defs>
  <path d="M625 380 C 625 320.5, 590 320.5, 590 285" fill="none" stroke="#ff7a3d" stroke-width="12" stroke-linecap="round" marker-end="url(#arrow)"/>
  <text x="607.5" y="306.5" text-anchor="middle" font-family="Inter, Arial" font-size="20" font-weight="800" fill="#ff7a3d">подъём</text><rect x="72" y="392" width="300" height="42" rx="21" fill="#fff2df" stroke="#ead7a2" stroke-width="2"/>
  <circle cx="94" cy="413" r="7" fill="#ff7a3d"/>
  <text x="112" y="420" font-family="Inter, Arial" font-size="18" font-weight="750" fill="#211b16">плечи неподвижно</text><rect x="72" y="446" width="300" height="42" rx="21" fill="#fff2df" stroke="#ead7a2" stroke-width="2"/>
  <circle cx="94" cy="467" r="7" fill="#ff7a3d"/>
  <text x="112" y="474" font-family="Inter, Arial" font-size="18" font-weight="750" fill="#211b16">локти у корпуса</text><rect x="72" y="500" width="300" height="42" rx="21" fill="#fff2df" stroke="#ead7a2" stroke-width="2"/>
  <circle cx="94" cy="521" r="7" fill="#ff7a3d"/>
  <text x="112" y="528" font-family="Inter, Arial" font-size="18" font-weight="750" fill="#211b16">опускай медленно</text>
</svg>