<svg xmlns="http://www.w3.org/2000/svg" width="960" height="640" viewBox="0 0 960 640" role="img" aria-label="Присед со штангой: техника выполнения">
  <rect width="960" height="640" rx="48" fill="#fff7ec"/>
  <rect x="42" y="42" width="876" height="556" rx="38" fill="#fffaf2" stroke="#eadfce" stroke-width="4"/>
  <text x="72" y="96" font-family="Inter, Arial, sans-serif" font-size="38" font-weight="800" fill="#211b16">Присед со штангой</text>
  <text x="72" y="132" font-family="Inter, Arial, sans-serif" font-size="22" font-weight="700" fill="#8a7b6b">Ноги · ягодицы · кор</text>
  
  <line x1="300" y1="250" x2="650" y2="250" stroke="#2b2621" stroke-width="14" stroke-linecap="round"/>
  <circle cx="276" cy="250" r="34" fill="#2b2621"/><circle cx="674" cy="250" r="34" fill="#2b2621"/>
  <circle cx="470" cy="204" r="28" fill="#f0a67d" stroke="#211b16" stroke-width="4"/>
  <path d="M470 236 L448 338" stroke="#211b16" stroke-width="17" stroke-linecap="round"/>
  <path d="M390 260 L550 260" stroke="#211b16" stroke-width="13" stroke-linecap="round"/>
  <path d="M448 338 L386 430 L335 520" stroke="#211b16" stroke-width="15" stroke-linecap="round"/>
  <path d="M452 338 L548 428 L620 516" stroke="#211b16" stroke-width="15" stroke-linecap="round"/>
  <path d="M290 528 L370 528 M595 528 L670 528" stroke="#211b16" stroke-width="11" stroke-linecap="round"/>
  <defs><marker id="arrow" markerWidth="10" markerHeight="10" refX="8" refY="3" orient="auto" markerUnits="strokeWidth"><path d="M0,0 L0,6 L9,3 z" fill="#ff7a3d"/></marker></defs>
  <path d="M705 260 C 705 313, 705 313, 705 390" fill="none" stroke="#ff7a3d" stroke-width="12" stroke-linecap="round" marker-end="url(#arrow)"/>
  <text x="705" y="299" text-anchor="middle" font-family="Inter, Arial" font-size="20" font-weight="800" fill="#ff7a3d">вниз под контролем</text><rect x="74" y="392" width="300" height="42" rx="21" fill="#fff2df" stroke="#ead7a2" stroke-width="2"/>
  <circle cx="96" cy="413" r="7" fill="#ff7a3d"/>
  <text x="114" y="420" font-family="Inter, Arial" font-size="18" font-weight="750" fill="#211b16">колени по линии стоп</text><rect x="74" y="446" width="300" height="42" rx="21" fill="#fff2df" stroke="#ead7a2" stroke-width="2"/>
  <circle cx="96" cy="467" r="7" fill="#ff7a3d"/>
  <text x="114" y="474" font-family="Inter, Arial" font-size="18" font-weight="750" fill="#211b16">спина нейтрально</text><rect x="74" y="500" width="300" height="42" rx="21" fill="#fff2df" stroke="#ead7a2" stroke-width="2"/>
  <circle cx="96" cy="521" r="7" fill="#ff7a3d"/>
  <text x="114" y="528" font-family="Inter, Arial" font-size="18" font-weight="750" fill="#211b16">давление всей стопой</text>
</svg>