<svg xmlns="http://www.w3.org/2000/svg" width="960" height="640" viewBox="0 0 960 640" role="img" aria-label="Жим гантелей сидя: техника выполнения">
  <rect width="960" height="640" rx="48" fill="#fff7ec"/>
  <rect x="42" y="42" width="876" height="556" rx="38" fill="#fffaf2" stroke="#eadfce" stroke-width="4"/>
  <text x="72" y="96" font-family="Inter, Arial, sans-serif" font-size="38" font-weight="800" fill="#211b16">Жим гантелей сидя</text>
  <text x="72" y="132" font-family="Inter, Arial, sans-serif" font-size="22" font-weight="700" fill="#8a7b6b">Плечи · трицепс</text>
  
  <rect x="390" y="430" width="170" height="34" rx="17" fill="#d8cab7" stroke="#5c4a3c" stroke-width="4"/>
  <rect x="520" y="300" width="34" height="180" rx="16" fill="#d8cab7" stroke="#5c4a3c" stroke-width="4"/>
  <circle cx="470" cy="260" r="28" fill="#f0a67d" stroke="#211b16" stroke-width="4"/>
  <path d="M470 292 L470 420" stroke="#211b16" stroke-width="17" stroke-linecap="round"/>
  <path d="M424 330 L382 235 M516 330 L558 235" stroke="#211b16" stroke-width="13" stroke-linecap="round"/>
  <rect x="354" y="210" width="56" height="28" rx="10" fill="#2b2621"/><rect x="530" y="210" width="56" height="28" rx="10" fill="#2b2621"/>
  <path d="M455 420 L430 520 M485 420 L515 520" stroke="#211b16" stroke-width="14" stroke-linecap="round"/>
  <defs><marker id="arrow" markerWidth="10" markerHeight="10" refX="8" refY="3" orient="auto" markerUnits="strokeWidth"><path d="M0,0 L0,6 L9,3 z" fill="#ff7a3d"/></marker></defs>
  <path d="M470 240 C 470 191, 470 191, 470 166" fill="none" stroke="#ff7a3d" stroke-width="12" stroke-linecap="round" marker-end="url(#arrow)"/>
  <text x="470" y="177" text-anchor="middle" font-family="Inter, Arial" font-size="20" font-weight="800" fill="#ff7a3d">вверх</text><rect x="625" y="386" width="300" height="42" rx="21" fill="#fff2df" stroke="#ead7a2" stroke-width="2"/>
  <circle cx="647" cy="407" r="7" fill="#ff7a3d"/>
  <text x="665" y="414" font-family="Inter, Arial" font-size="18" font-weight="750" fill="#211b16">пресс напряжён</text><rect x="625" y="440" width="300" height="42" rx="21" fill="#fff2df" stroke="#ead7a2" stroke-width="2"/>
  <circle cx="647" cy="461" r="7" fill="#ff7a3d"/>
  <text x="665" y="468" font-family="Inter, Arial" font-size="18" font-weight="750" fill="#211b16">не прогибай поясницу</text><rect x="625" y="494" width="300" height="42" rx="21" fill="#fff2df" stroke="#ead7a2" stroke-width="2"/>
  <circle cx="647" cy="515" r="7" fill="#ff7a3d"/>
  <text x="665" y="522" font-family="Inter, Arial" font-size="18" font-weight="750" fill="#211b16">контроль вниз</text>
</svg>