<svg xmlns="http://www.w3.org/2000/svg" width="960" height="640" viewBox="0 0 960 640" role="img" aria-label="Тяга в тренажёре: техника выполнения">
  <rect width="960" height="640" rx="48" fill="#fff7ec"/>
  <rect x="42" y="42" width="876" height="556" rx="38" fill="#fffaf2" stroke="#eadfce" stroke-width="4"/>
  <text x="72" y="96" font-family="Inter, Arial, sans-serif" font-size="38" font-weight="800" fill="#211b16">Тяга в тренажёре</text>
  <text x="72" y="132" font-family="Inter, Arial, sans-serif" font-size="22" font-weight="700" fill="#8a7b6b">Спина · лопатки</text>
  
  <rect x="195" y="300" width="72" height="210" rx="22" fill="#5c4a3c"/>
  <rect x="280" y="430" width="210" height="34" rx="17" fill="#d8cab7" stroke="#5c4a3c" stroke-width="4"/>
  <rect x="590" y="280" width="80" height="210" rx="24" fill="#d7c7b5" stroke="#5c4a3c" stroke-width="4"/>
  <circle cx="395" cy="276" r="28" fill="#f0a67d" stroke="#211b16" stroke-width="4"/>
  <path d="M410 306 L505 415" stroke="#211b16" stroke-width="17" stroke-linecap="round"/>
  <path d="M490 370 L590 352 M490 398 L590 388" stroke="#211b16" stroke-width="13" stroke-linecap="round"/>
  <path d="M505 415 L432 520 M510 415 L575 520" stroke="#211b16" stroke-width="14" stroke-linecap="round"/>
  <defs><marker id="arrow" markerWidth="10" markerHeight="10" refX="8" refY="3" orient="auto" markerUnits="strokeWidth"><path d="M0,0 L0,6 L9,3 z" fill="#ff7a3d"/></marker></defs>
  <path d="M684 370 C 684 358, 590 358, 590 370" fill="none" stroke="#ff7a3d" stroke-width="12" stroke-linecap="round" marker-end="url(#arrow)"/>
  <text x="637" y="344" text-anchor="middle" font-family="Inter, Arial" font-size="20" font-weight="800" fill="#ff7a3d">тяни назад</text><rect x="72" y="392" width="300" height="42" rx="21" fill="#fff2df" stroke="#ead7a2" stroke-width="2"/>
  <circle cx="94" cy="413" r="7" fill="#ff7a3d"/>
  <text x="112" y="420" font-family="Inter, Arial" font-size="18" font-weight="750" fill="#211b16">грудь зафиксирована</text><rect x="72" y="446" width="300" height="42" rx="21" fill="#fff2df" stroke="#ead7a2" stroke-width="2"/>
  <circle cx="94" cy="467" r="7" fill="#ff7a3d"/>
  <text x="112" y="474" font-family="Inter, Arial" font-size="18" font-weight="750" fill="#211b16">своди лопатки</text><rect x="72" y="500" width="300" height="42" rx="21" fill="#fff2df" stroke="#ead7a2" stroke-width="2"/>
  <circle cx="94" cy="521" r="7" fill="#ff7a3d"/>
  <text x="112" y="528" font-family="Inter, Arial" font-size="18" font-weight="750" fill="#211b16">без рывка</text>
</svg>