<svg xmlns="http://www.w3.org/2000/svg" width="960" height="640" viewBox="0 0 960 640" role="img" aria-label="Молотковые сгибания: техника выполнения">
  <rect width="960" height="640" rx="48" fill="#fff7ec"/>
  <rect x="42" y="42" width="876" height="556" rx="38" fill="#fffaf2" stroke="#eadfce" stroke-width="4"/>
  <text x="72" y="96" font-family="Inter, Arial, sans-serif" font-size="38" font-weight="800" fill="#211b16">Молотковые сгибания</text>
  <text x="72" y="132" font-family="Inter, Arial, sans-serif" font-size="22" font-weight="700" fill="#8a7b6b">Бицепс · предплечье</text>
  
  <circle cx="450" cy="190" r="28" fill="#f0a67d" stroke="#211b16" stroke-width="4"/>
  <path d="M450 222 L450 318" stroke="#211b16" stroke-width="16" stroke-linecap="round"/>
  <path d="M404 262 L496 262" stroke="#211b16" stroke-width="14" stroke-linecap="round"/>
  <path d="M442 318 L398 410" stroke="#211b16" stroke-width="15" stroke-linecap="round"/>
  <path d="M458 318 L502 410" stroke="#211b16" stroke-width="15" stroke-linecap="round"/>
  <path d="M404 262 L382 356 M496 262 L518 356" stroke="#211b16" stroke-width="13" stroke-linecap="round"/>
  <rect x="362" y="345" width="42" height="70" rx="12" fill="#2b2621"/><rect x="498" y="345" width="42" height="70" rx="12" fill="#2b2621"/>
  <defs><marker id="arrow" markerWidth="10" markerHeight="10" refX="8" refY="3" orient="auto" markerUnits="strokeWidth"><path d="M0,0 L0,6 L9,3 z" fill="#ff7a3d"/></marker></defs>
  <path d="M560 390 C 560 333, 515 333, 515 300" fill="none" stroke="#ff7a3d" stroke-width="12" stroke-linecap="round" marker-end="url(#arrow)"/>
  <text x="537.5" y="319" text-anchor="middle" font-family="Inter, Arial" font-size="20" font-weight="800" fill="#ff7a3d">сгибай</text><rect x="72" y="392" width="300" height="42" rx="21" fill="#fff2df" stroke="#ead7a2" stroke-width="2"/>
  <circle cx="94" cy="413" r="7" fill="#ff7a3d"/>
  <text x="112" y="420" font-family="Inter, Arial" font-size="18" font-weight="750" fill="#211b16">локти неподвижно</text><rect x="72" y="446" width="300" height="42" rx="21" fill="#fff2df" stroke="#ead7a2" stroke-width="2"/>
  <circle cx="94" cy="467" r="7" fill="#ff7a3d"/>
  <text x="112" y="474" font-family="Inter, Arial" font-size="18" font-weight="750" fill="#211b16">нейтральный хват</text><rect x="72" y="500" width="300" height="42" rx="21" fill="#fff2df" stroke="#ead7a2" stroke-width="2"/>
  <circle cx="94" cy="521" r="7" fill="#ff7a3d"/>
  <text x="112" y="528" font-family="Inter, Arial" font-size="18" font-weight="750" fill="#211b16">без раскачки</text>
</svg>