<svg xmlns="http://www.w3.org/2000/svg" width="960" height="640" viewBox="0 0 960 640" role="img" aria-label="Жим гантелей на наклонной: техника выполнения">
  <rect width="960" height="640" rx="48" fill="#fff7ec"/>
  <rect x="42" y="42" width="876" height="556" rx="38" fill="#fffaf2" stroke="#eadfce" stroke-width="4"/>
  <text x="72" y="96" font-family="Inter, Arial, sans-serif" font-size="38" font-weight="800" fill="#211b16">Жим гантелей на наклонной</text>
  <text x="72" y="132" font-family="Inter, Arial, sans-serif" font-size="22" font-weight="700" fill="#8a7b6b">Верх груди · плечи</text>
  
  <path d="M280 470 L520 330" stroke="#d8cab7" stroke-width="34" stroke-linecap="round"/>
  <path d="M300 482 L270 535 M500 346 L550 522" stroke="#5c4a3c" stroke-width="13" stroke-linecap="round"/>
  <circle cx="430" cy="300" r="28" fill="#f0a67d" stroke="#211b16" stroke-width="4"/>
  <path d="M410 330 L350 430" stroke="#211b16" stroke-width="18" stroke-linecap="round"/>
  <path d="M380 345 L350 270 M430 335 L505 270" stroke="#211b16" stroke-width="13" stroke-linecap="round"/>
  <rect x="330" y="242" width="50" height="26" rx="10" fill="#2b2621"/><rect x="488" y="242" width="50" height="26" rx="10" fill="#2b2621"/>
  <path d="M346 430 L310 510 M370 420 L420 510" stroke="#211b16" stroke-width="13" stroke-linecap="round"/>
  <defs><marker id="arrow" markerWidth="10" markerHeight="10" refX="8" refY="3" orient="auto" markerUnits="strokeWidth"><path d="M0,0 L0,6 L9,3 z" fill="#ff7a3d"/></marker></defs>
  <path d="M442 270 C 442 222, 442 222, 442 198" fill="none" stroke="#ff7a3d" stroke-width="12" stroke-linecap="round" marker-end="url(#arrow)"/>
  <text x="442" y="208" text-anchor="middle" font-family="Inter, Arial" font-size="20" font-weight="800" fill="#ff7a3d">жми вверх</text><rect x="620" y="388" width="300" height="42" rx="21" fill="#fff2df" stroke="#ead7a2" stroke-width="2"/>
  <circle cx="642" cy="409" r="7" fill="#ff7a3d"/>
  <text x="660" y="416" font-family="Inter, Arial" font-size="18" font-weight="750" fill="#211b16">угол 25–35°</text><rect x="620" y="442" width="300" height="42" rx="21" fill="#fff2df" stroke="#ead7a2" stroke-width="2"/>
  <circle cx="642" cy="463" r="7" fill="#ff7a3d"/>
  <text x="660" y="470" font-family="Inter, Arial" font-size="18" font-weight="750" fill="#211b16">локти чуть ниже плеч</text><rect x="620" y="496" width="300" height="42" rx="21" fill="#fff2df" stroke="#ead7a2" stroke-width="2"/>
  <circle cx="642" cy="517" r="7" fill="#ff7a3d"/>
  <text x="660" y="524" font-family="Inter, Arial" font-size="18" font-weight="750" fill="#211b16">без удара гантелей</text>
</svg>