<svg xmlns="http://www.w3.org/2000/svg" width="960" height="640" viewBox="0 0 960 640" role="img" aria-label="Планка: техника выполнения">
  <rect width="960" height="640" rx="48" fill="#fff7ec"/>
  <rect x="42" y="42" width="876" height="556" rx="38" fill="#fffaf2" stroke="#eadfce" stroke-width="4"/>
  <text x="72" y="96" font-family="Inter, Arial, sans-serif" font-size="38" font-weight="800" fill="#211b16">Планка</text>
  <text x="72" y="132" font-family="Inter, Arial, sans-serif" font-size="22" font-weight="700" fill="#8a7b6b">Кор · пресс · стабилизация</text>
  
  <rect x="192" y="514" width="560" height="14" rx="7" fill="#eadfce"/>
  <circle cx="290" cy="355" r="28" fill="#f0a67d" stroke="#211b16" stroke-width="4"/>
  <path d="M320 374 L560 430" stroke="#211b16" stroke-width="20" stroke-linecap="round"/>
  <path d="M350 390 L295 492 M525 424 L720 500" stroke="#211b16" stroke-width="15" stroke-linecap="round"/>
  <path d="M275 492 L330 492 M690 500 L760 500" stroke="#211b16" stroke-width="12" stroke-linecap="round"/>
  <line x1="275" y1="330" x2="705" y2="440" stroke="#ff7a3d" stroke-width="6" stroke-dasharray="14 12"/>
  <rect x="72" y="196" width="300" height="42" rx="21" fill="#fff2df" stroke="#ead7a2" stroke-width="2"/>
  <circle cx="94" cy="217" r="7" fill="#ff7a3d"/>
  <text x="112" y="224" font-family="Inter, Arial" font-size="18" font-weight="750" fill="#211b16">тело одной линией</text><rect x="72" y="250" width="300" height="42" rx="21" fill="#fff2df" stroke="#ead7a2" stroke-width="2"/>
  <circle cx="94" cy="271" r="7" fill="#ff7a3d"/>
  <text x="112" y="278" font-family="Inter, Arial" font-size="18" font-weight="750" fill="#211b16">таз не провисает</text><rect x="72" y="304" width="300" height="42" rx="21" fill="#fff2df" stroke="#ead7a2" stroke-width="2"/>
  <circle cx="94" cy="325" r="7" fill="#ff7a3d"/>
  <text x="112" y="332" font-family="Inter, Arial" font-size="18" font-weight="750" fill="#211b16">дыши спокойно</text>
</svg>