<svg xmlns="http://www.w3.org/2000/svg" width="960" height="640" viewBox="0 0 960 640" role="img" aria-label="Разгибание рук на блоке: техника выполнения">
  <rect width="960" height="640" rx="48" fill="#fff7ec"/>
  <rect x="42" y="42" width="876" height="556" rx="38" fill="#fffaf2" stroke="#eadfce" stroke-width="4"/>
  <text x="72" y="96" font-family="Inter, Arial, sans-serif" font-size="38" font-weight="800" fill="#211b16">Разгибание рук на блоке</text>
  <text x="72" y="132" font-family="Inter, Arial, sans-serif" font-size="22" font-weight="700" fill="#8a7b6b">Трицепс</text>
  
  <rect x="220" y="168" width="36" height="360" rx="14" fill="#5c4a3c"/><rect x="220" y="168" width="320" height="24" rx="12" fill="#5c4a3c"/>
  <line x1="510" y1="192" x2="510" y2="318" stroke="#2b2621" stroke-width="7"/>
  <circle cx="530" cy="242" r="28" fill="#f0a67d" stroke="#211b16" stroke-width="4"/>
  <path d="M545 274 L524 370" stroke="#211b16" stroke-width="16" stroke-linecap="round"/>
  <path d="M499 314 L591 314" stroke="#211b16" stroke-width="14" stroke-linecap="round"/>
  <path d="M537 370 L493 462" stroke="#211b16" stroke-width="15" stroke-linecap="round"/>
  <path d="M553 370 L597 462" stroke="#211b16" stroke-width="15" stroke-linecap="round"/>
  <path d="M500 330 L510 420 M558 330 L536 420" stroke="#211b16" stroke-width="13" stroke-linecap="round"/>
  <path d="M502 420 L475 470 M538 420 L570 470" stroke="#2b2621" stroke-width="9" stroke-linecap="round"/>
  <defs><marker id="arrow" markerWidth="10" markerHeight="10" refX="8" refY="3" orient="auto" markerUnits="strokeWidth"><path d="M0,0 L0,6 L9,3 z" fill="#ff7a3d"/></marker></defs>
  <path d="M660 330 C 660 368, 660 368, 660 430" fill="none" stroke="#ff7a3d" stroke-width="12" stroke-linecap="round" marker-end="url(#arrow)"/>
  <text x="660" y="354" text-anchor="middle" font-family="Inter, Arial" font-size="20" font-weight="800" fill="#ff7a3d">разгибай вниз</text><rect x="72" y="392" width="300" height="42" rx="21" fill="#fff2df" stroke="#ead7a2" stroke-width="2"/>
  <circle cx="94" cy="413" r="7" fill="#ff7a3d"/>
  <text x="112" y="420" font-family="Inter, Arial" font-size="18" font-weight="750" fill="#211b16">локти прижаты</text><rect x="72" y="446" width="300" height="42" rx="21" fill="#fff2df" stroke="#ead7a2" stroke-width="2"/>
  <circle cx="94" cy="467" r="7" fill="#ff7a3d"/>
  <text x="112" y="474" font-family="Inter, Arial" font-size="18" font-weight="750" fill="#211b16">корпус стабилен</text><rect x="72" y="500" width="300" height="42" rx="21" fill="#fff2df" stroke="#ead7a2" stroke-width="2"/>
  <circle cx="94" cy="521" r="7" fill="#ff7a3d"/>
  <text x="112" y="528" font-family="Inter, Arial" font-size="18" font-weight="750" fill="#211b16">полное разгибание</text>
</svg>