<svg xmlns="http://www.w3.org/2000/svg" width="960" height="640" viewBox="0 0 960 640" role="img" aria-label="Выпады с гантелями: техника выполнения">
  <rect width="960" height="640" rx="48" fill="#fff7ec"/>
  <rect x="42" y="42" width="876" height="556" rx="38" fill="#fffaf2" stroke="#eadfce" stroke-width="4"/>
  <text x="72" y="96" font-family="Inter, Arial, sans-serif" font-size="38" font-weight="800" fill="#211b16">Выпады с гантелями</text>
  <text x="72" y="132" font-family="Inter, Arial, sans-serif" font-size="22" font-weight="700" fill="#8a7b6b">Ноги · ягодицы</text>
  
  <circle cx="450" cy="206" r="28" fill="#f0a67d" stroke="#211b16" stroke-width="4"/>
  <path d="M450 238 L430 342" stroke="#211b16" stroke-width="17" stroke-linecap="round"/>
  <path d="M395 280 L355 390 M485 280 L535 390" stroke="#211b16" stroke-width="13" stroke-linecap="round"/>
  <rect x="332" y="386" width="48" height="28" rx="10" fill="#2b2621"/><rect x="512" y="386" width="48" height="28" rx="10" fill="#2b2621"/>
  <path d="M430 342 L335 430 L280 520" stroke="#211b16" stroke-width="15" stroke-linecap="round"/>
  <path d="M435 342 L535 435 L640 520" stroke="#211b16" stroke-width="15" stroke-linecap="round"/>
  <path d="M250 520 L325 520 M620 520 L700 520" stroke="#211b16" stroke-width="11" stroke-linecap="round"/>
  <defs><marker id="arrow" markerWidth="10" markerHeight="10" refX="8" refY="3" orient="auto" markerUnits="strokeWidth"><path d="M0,0 L0,6 L9,3 z" fill="#ff7a3d"/></marker></defs>
  <path d="M715 300 C 715 288, 795 288, 795 300" fill="none" stroke="#ff7a3d" stroke-width="12" stroke-linecap="round" marker-end="url(#arrow)"/>
  <text x="755" y="274" text-anchor="middle" font-family="Inter, Arial" font-size="20" font-weight="800" fill="#ff7a3d">шаг вперёд</text><rect x="72" y="392" width="300" height="42" rx="21" fill="#fff2df" stroke="#ead7a2" stroke-width="2"/>
  <circle cx="94" cy="413" r="7" fill="#ff7a3d"/>
  <text x="112" y="420" font-family="Inter, Arial" font-size="18" font-weight="750" fill="#211b16">длинный стабильный шаг</text><rect x="72" y="446" width="300" height="42" rx="21" fill="#fff2df" stroke="#ead7a2" stroke-width="2"/>
  <circle cx="94" cy="467" r="7" fill="#ff7a3d"/>
  <text x="112" y="474" font-family="Inter, Arial" font-size="18" font-weight="750" fill="#211b16">колено по линии стопы</text><rect x="72" y="500" width="300" height="42" rx="21" fill="#fff2df" stroke="#ead7a2" stroke-width="2"/>
  <circle cx="94" cy="521" r="7" fill="#ff7a3d"/>
  <text x="112" y="528" font-family="Inter, Arial" font-size="18" font-weight="750" fill="#211b16">отталкивайся всей стопой</text>
</svg>